<svg fill="none" height="78" viewBox="0 0 78 78" width="78" xmlns="http://www.w3.org/2000/svg" xmlns:xlink="http://www.w3.org/1999/xlink"><filter id="a" color-interpolation-filters="sRGB" filterUnits="userSpaceOnUse" height="78" width="78" x="0" y="0"><feFlood flood-opacity="0" result="BackgroundImageFix"/><feColorMatrix in="SourceAlpha" result="hardAlpha" type="matrix" values="0 0 0 0 0 0 0 0 0 0 0 0 0 0 0 0 0 0 127 0"/><feOffset/><feGaussianBlur stdDeviation="4"/><feColorMatrix type="matrix" values="0 0 0 0 0 0 0 0 0 0 0 0 0 0 0 0 0 0 0.2 0"/><feBlend in2="BackgroundImageFix" mode="normal" result="effect1_dropShadow"/><feBlend in="SourceGraphic" in2="effect1_dropShadow" mode="normal" result="shape"/></filter><g filter="url(#a)"><path d="m28.0333 25.6003 8.4022-13.3552-4.9971-3.27244c-.4865 2.47644-2.2554 4.51074-4.5992 5.30674v.3537c0 3.5821-2.9186 6.5008-6.5007 6.5008-.7075 0-1.4151-.1327-2.0342-.3096-1.2382 2.2111-3.6263 3.6705-6.3238 3.6705l1.1498 3.582z" fill="#cfac82"/><path d="m39 8c-2.6091 0-5.174.30956-7.6063.92867.1769.5749.3096 1.14983.3096 1.76893 0 2.388-1.4594 4.4222-3.4936 5.3067.0442.3538.0884.7075.0884 1.0613 0 3.184-2.5649 5.749-5.7489 5.749-1.0171 0-1.9458-.2654-2.786-.7076-.9287 1.9016-2.8745 3.184-5.1298 3.184-1.1056 0-2.1227-.3095-3.0072-.8402-2.29952 4.3338-3.6262 9.2867-3.6262 14.5492 0 17.1141 13.8859 31 31 31s31-13.8859 31-31c-.0442-17.1141-13.8859-31-31-31z" fill="#edd3b4"/><path d="m39.0013 14.7227c-3.8473 0-7.4736.8402-10.7018 2.388 0 3.184-2.5649 5.7489-5.749 5.7489-.6191 0-1.2382-.1327-1.8131-.3096-4.3338 4.5107-6.9872 10.6577-6.9872 17.4237 0 13.9301 11.321 25.2511 25.2511 25.2511s25.2511-11.321 25.2511-25.2511-11.321-25.251-25.2511-25.251z" fill="#f5e3c6"/><g fill="#97725a"><path d="m47.8405 33.9584c2.2958 0 4.1569-1.8611 4.1569-4.157 0-2.2958-1.8611-4.1569-4.1569-4.1569s-4.1569 1.8611-4.1569 4.1569c0 2.2959 1.8611 4.157 4.1569 4.157z"/><path d="m34.1317 47.6241c2.0271 0 3.6704-1.6433 3.6704-3.6704 0-2.0272-1.6433-3.6705-3.6704-3.6705-2.0272 0-3.6705 1.6433-3.6705 3.6705 0 2.0271 1.6433 3.6704 3.6705 3.6704z"/><path d="m42.0525 61.039c2.3202 0 4.2011-1.8809 4.2011-4.2011 0-2.3203-1.8809-4.2012-4.2011-4.2012-2.3203 0-4.2012 1.8809-4.2012 4.2012 0 2.3202 1.8809 4.2011 4.2012 4.2011z"/><path d="m15.4517 42.0518c2.5535 0 4.6236-2.07 4.6236-4.6235 0-2.5536-2.0701-4.6236-4.6236-4.6236s-4.6236 2.07-4.6236 4.6236c0 2.5535 2.0701 4.6235 4.6236 4.6235z"/><path d="m56.9129 50.7202c1.27 0 2.2995-1.0295 2.2995-2.2995 0-1.2701-1.0295-2.2996-2.2995-2.2996-1.2701 0-2.2996 1.0295-2.2996 2.2996 0 1.27 1.0295 2.2995 2.2996 2.2995z"/><path d="m36.4324 25.689c1.27 0 2.2996-1.0296 2.2996-2.2996s-1.0296-2.2996-2.2996-2.2996-2.2996 1.0296-2.2996 2.2996 1.0296 2.2996 2.2996 2.2996z"/></g></g></svg>