<svg width="36" height="29" viewBox="0 0 36 29" fill="none" xmlns="http://www.w3.org/2000/svg">
<path d="M32.4 0H3.6C1.62 0 0.018 1.63125 0.018 3.62499L0 25.3749C0 27.3688 1.62 29 3.6 29H32.4C34.3799 29 36 27.3688 36 25.3749V3.62499C36 1.63125 34.3799 0 32.4 0V0ZM31.68 7.70311L18.954 15.7144C18.378 16.0768 17.622 16.0768 17.046 15.7144L4.32001 7.70311C3.87 7.41312 3.6 6.92374 3.6 6.39811C3.6 5.18375 4.914 4.45874 5.94 5.09311L18 12.6875L30.0601 5.09311C31.0861 4.45874 32.4 5.18375 32.4 6.39811C32.4 6.92374 32.1301 7.41312 31.68 7.70311V7.70311Z" fill="#2681E2"/>
</svg>
