<svg fill="none" height="20" viewBox="0 0 22 20" width="22" xmlns="http://www.w3.org/2000/svg"><path d="m14.0501 6.17486c-3.2027-2.73476-8.00496-2.35622-10.73972.84657l1.65519 1.41331c1.95037-2.28416 5.38713-2.55506 7.67123-.60469 2.2842 1.95038 2.5551 5.38715.6047 7.67125l1.6552 1.4133c2.7348-3.2028 2.3562-8.00497-.8466-10.73974zm2.8267-3.31038c-5.0235-4.28941-12.58739-3.693181-16.8768 1.33032l1.65519 1.41331c3.51209-4.11314 9.69511-4.60052 13.80831-1.08844 4.1131 3.51209 4.6005 9.69513 1.0884 13.80823l1.6552 1.4134c4.2894-5.0235 3.6932-12.58741-1.3303-16.87682z" fill="#ffb0bb" opacity=".4"/><circle cx="8.39654" cy="12.7955" fill="#ff566d" r="3.26474"/></svg>