<svg fill="none" height="26" viewBox="0 0 26 26" width="26" xmlns="http://www.w3.org/2000/svg"><path d="m12.9167 0c-7.13003 0-12.9167 5.78667-12.9167 12.9167 0 7.13 5.78667 12.9166 12.9167 12.9166 7.13 0 12.9166-5.7866 12.9166-12.9166 0-7.13003-5.7866-12.9167-12.9166-12.9167zm0 23.25c-5.69628 0-10.33337-4.6371-10.33337-10.3333 0-5.69628 4.63709-10.33337 10.33337-10.33337 5.6962 0 10.3333 4.63709 10.3333 10.33337 0 5.6962-4.6371 10.3333-10.3333 10.3333zm5.0116-15.12542-7.595 7.59502-2.4283-2.4283c-.50375-.5038-1.3175-.5038-1.82125 0-.50375.5037-.50375 1.3175 0 1.8212l3.34542 3.3454c.50375.5038 1.31753.5038 1.82123 0l8.5121-8.51207c.5038-.50375.5038-1.3175 0-1.82125-.5037-.50375-1.3304-.50375-1.8342 0z" fill="#fff"/></svg>