<svg fill="none" height="31" viewBox="0 0 29 31" width="29" xmlns="http://www.w3.org/2000/svg"><path d="m14.25 0c-7.86917 0-14.25 6.38083-14.25 14.25v11.0833c0 2.6284 2.12167 4.75 4.75 4.75h4.75v-12.6666h-6.33333v-3.1667c0-6.1275 4.95583-11.08333 11.08333-11.08333s11.0833 4.95583 11.0833 11.08333v3.1667h-6.3333v12.6666h4.75c2.6283 0 4.75-2.1216 4.75-4.75v-11.0833c0-7.86917-6.3808-14.25-14.25-14.25zm-7.91667 20.5833v6.3334h-1.58333c-.87083 0-1.58333-.7125-1.58333-1.5834v-4.75zm18.99997 4.75c0 .8709-.7125 1.5834-1.5833 1.5834h-1.5833v-6.3334h3.1666z" fill="#fff"/></svg>