<svg fill="none" height="24" viewBox="0 0 34 24" width="34" xmlns="http://www.w3.org/2000/svg"><path clip-rule="evenodd" d="m13.4812 15.9876-.001-9.3318 9.1804 4.682zm20.1572-10.9486s-.3323-2.28857-1.3506-3.29637c-1.2923-1.323319-2.7406-1.329546-3.4042-1.406351-4.7548-.336279-11.8871-.336279-11.8871-.336279h-.0148s-7.13228 0-11.8871.336279c-.66469.076805-2.11195.083032-3.40525 1.406351-1.018281 1.0078-1.349568 3.29637-1.349568 3.29637s-.339782 2.68816-.339782 5.3753v2.52c0 2.6882.339782 5.3753.339782 5.3753s.331287 2.2886 1.349568 3.2964c1.2933 1.3233 2.99114 1.2818 3.74716 1.4198 2.71825.2553 11.55259.3342 11.55259.3342s7.1397-.0104 11.8945-.3467c.6636-.0778 2.1119-.084 3.4042-1.4073 1.0183-1.0078 1.3506-3.2964 1.3506-3.2964s.3398-2.6871.3398-5.3753v-2.52c0-2.68714-.3398-5.3753-.3398-5.3753z" fill="#2681e2" fill-rule="evenodd"/></svg>