<svg fill="none" height="23" viewBox="0 0 23 23" width="23" xmlns="http://www.w3.org/2000/svg"><path d="m12.6213 5.75-.5655-.56542-1.3512-1.35125h-4.9546v11.49997h15.3333v-9.5833zm4.1495 4.3125 3.3542 4.3125h-13.41667l4.31247-5.75 3.3542 4.3221z" fill="#a4d0ea" opacity=".3"/><path d="m1.91667 5.75h-1.91667v4.7917h.00958333l-.00958333 8.625c0 1.0541.8625 1.9166 1.91667 1.9166h17.25003v-1.9166h-17.25003zm4.79166 8.625h13.41667l-3.3542-4.3125-2.3958 2.8846-3.3542-4.3221zm14.37497-10.54167h-7.6666l-1.9167-1.91666h-5.75c-1.05417 0-1.90708.8625-1.90708 1.91666l-.00959 11.49997c0 1.0542.8625 1.9167 1.91667 1.9167h15.3333c1.0542 0 1.9167-.8625 1.9167-1.9167v-9.5833c0-1.05417-.8625-1.91667-1.9167-1.91667zm0 11.49997h-15.3333v-11.49997h4.9546l1.3512 1.35125.5654.56542h8.4621z" fill="#fff"/></svg>