<svg fill="none" height="19" viewBox="0 0 19 19" width="19" xmlns="http://www.w3.org/2000/svg"><path d="m18.2644.428542c-.5525-.5525-1.445-.5525-1.9975 0l-6.92752 6.913338-6.9275-6.927505c-.5525-.5525-1.445005-.5525-1.997505 0s-.5525 1.445005 0 1.997505l6.927505 6.9275-6.927505 6.92752c-.5525.5525-.5525 1.445 0 1.9975s1.445005.5525 1.997505 0l6.9275-6.9275 6.92752 6.9275c.5525.5525 1.445.5525 1.9975 0s.5525-1.445 0-1.9975l-6.9275-6.92752 6.9275-6.9275c.5383-.53834.5383-1.445005 0-1.983338z" fill="#fff"/></svg>