<?xml version="1.0" standalone="no"?>
<!DOCTYPE svg PUBLIC "-//W3C//DTD SVG 20010904//EN"
 "http://www.w3.org/TR/2001/REC-SVG-20010904/DTD/svg10.dtd">
<svg version="1.0" xmlns="http://www.w3.org/2000/svg"
 width="27.000000pt" height="27.000000pt" viewBox="0 0 27.000000 27.000000"
 preserveAspectRatio="xMidYMid meet">
<metadata>
Created by potrace 1.16, written by Peter Selinger 2001-2019
</metadata>
<g transform="translate(0.000000,27.000000) scale(0.006368,-0.006338)"
fill="#000000" stroke="none">
<path d="M532 4221 c-129 -32 -216 -82 -318 -186 -75 -75 -99 -107 -132 -176
-77 -160 -72 -51 -72 -1729 0 -1345 2 -1509 16 -1573 45 -202 186 -379 369
-467 155 -74 51 -70 1728 -70 1471 0 1506 0 1583 20 203 51 366 183 454 365
74 155 70 50 70 1725 0 1675 4 1570 -70 1725 -67 137 -179 250 -315 315 -155
74 -49 70 -1732 69 -1413 0 -1513 -2 -1581 -18z m1327 -1093 l444 -592 31 36
c17 20 265 286 550 592 l520 556 139 0 138 0 -18 -23 c-10 -12 -288 -312 -618
-666 -330 -354 -603 -649 -606 -655 -4 -6 293 -409 658 -896 366 -487 674
-897 685 -912 l19 -28 -498 0 -498 1 -116 157 c-64 86 -272 365 -462 620
l-345 463 -459 -493 c-252 -271 -512 -550 -577 -621 l-119 -127 -145 0 -145 0
49 53 c534 570 1260 1351 1262 1357 2 5 -1196 1624 -1301 1758 -7 9 90 12 479
12 l489 0 444 -592z"/>
<path d="M887 3488 c5 -7 468 -622 1028 -1365 l1017 -1353 220 0 c146 0 217 3
213 10 -4 6 -11 7 -17 4 -7 -4 -8 -2 -4 4 4 7 -410 569 -1004 1362 l-1012
1350 -225 0 c-179 0 -223 -3 -216 -12z"/>
</g>
</svg>
