<svg fill="none" height="19" viewBox="0 0 23 19" width="23" xmlns="http://www.w3.org/2000/svg"><path d="m1.91667 3.8h-1.91667v4.75h.00958333l-.00958333 8.55c0 1.045.8625 1.9 1.91667 1.9h17.25003v-1.9h-17.25003zm4.79166 8.55h13.41667l-3.3542-4.275-2.3958 2.8595-3.3542-4.2845zm14.37497-10.45h-7.6666l-1.9167-1.9h-5.75c-1.05417 0-1.90708.855-1.90708 1.9l-.00959 11.4c0 1.045.8625 1.9 1.91667 1.9h15.3333c1.0542 0 1.9167-.855 1.9167-1.9v-9.5c0-1.045-.8625-1.9-1.9167-1.9zm0 11.4h-15.3333v-11.4h4.9546l1.3512 1.3395.5654.5605h8.4621z" fill="#1759b0"/></svg>