<svg fill="none" height="17" viewBox="0 0 17 17" width="17" xmlns="http://www.w3.org/2000/svg"><path d="m8.38 0c-4.63 0-8.38 3.75-8.38 8.38 0 1.79.56 3.44 1.51 4.8l-.75 2.81 2.86-.72c1.35.93 2.99 1.48 4.75 1.48 4.63 0 8.38-3.75 8.38-8.38 0-4.62-3.75-8.37-8.37-8.37zm2.96 12.79c-1.84.03-4.05-.93-5.74-2.79-1.75-1.92-2.26-3.21-2.26-4.38 0-1.43 1-2.21 1.65-2.21.36 0 .72-.04.95.43.19.37.41 1.01.68 1.78.06.18.16.46.03.65s-.42.57-.64.81c-.05.07-.16.21-.01.44.19.3.24.63 1.23 1.58.8.77 1.8 1.22 2.17 1.37.1.06.34.13.5-.02s.63-.82.87-1.05c.09-.08.22-.22.49-.11.26.11 1.42.67 2.04.97.1.03.25.15.25.39 0 .53-.38 2.11-2.21 2.14z" fill="#2681e2"/></svg>