<svg fill="none" height="31" viewBox="0 0 31 31" width="31" xmlns="http://www.w3.org/2000/svg"><path clip-rule="evenodd" d="m15.5 0c-4.2095 0-4.7374.0178429-6.39063.0932755-1.64979.0752475-2.77654.3372925-3.76246.7204855-1.01926.396049-1.88366.926049-2.74541 1.787739-.86169.86175-1.39169 1.72615-1.787739 2.74541-.383193.98592-.645238 2.11267-.7204855 3.76246-.0754326 1.65323-.0932755 2.18113-.0932755 6.39063s.0178429 4.7374.0932755 6.3906c.0752475 1.6498.3372925 2.7766.7204855 3.7625.396049 1.0192.926049 1.8836 1.787739 2.7454.86175.8617 1.72615 1.3917 2.74541 1.7878.98592.3831 2.11267.6452 3.76246.7204 1.65323.0755 2.18113.0933 6.39063.0933s4.7374-.0178 6.3906-.0933c1.6498-.0752 2.7766-.3373 3.7625-.7204 1.0192-.3961 1.8836-.9261 2.7454-1.7878.8617-.8618 1.3917-1.7262 1.7878-2.7454.3831-.9859.6452-2.1127.7204-3.7625.0755-1.6532.0933-2.1811.0933-6.3906s-.0178-4.7374-.0933-6.39063c-.0752-1.64979-.3373-2.77654-.7204-3.76246-.3961-1.01926-.9261-1.88366-1.7878-2.74541-.8618-.86169-1.7262-1.39169-2.7454-1.787739-.9859-.383193-2.1127-.645238-3.7625-.7204855-1.6532-.0754326-2.1811-.0932755-6.3906-.0932755zm0 2.79276c4.1386 0 4.6289.01581 6.2633.09038 1.5112.06891 2.3319.32142 2.8781.53369.7235.28118 1.2399.61706 1.7822 1.15948.5425.54237.8783 1.0587 1.1595 1.7822.2123.54618.4648 1.3669.5337 2.87813.0746 1.63446.0904 2.12466.0904 6.26336 0 4.1386-.0158 4.6289-.0904 6.2633-.0689 1.5112-.3214 2.3319-.5337 2.8781-.2812.7235-.617 1.2399-1.1595 1.7822-.5423.5425-1.0587.8783-1.7822 1.1595-.5462.2123-1.3669.4648-2.8781.5337-1.6342.0746-2.1244.0904-6.2633.0904-4.139 0-4.6291-.0158-6.26336-.0904-1.51123-.0689-2.33195-.3214-2.87813-.5337-.7235-.2812-1.23983-.617-1.7822-1.1595-.54236-.5423-.8783-1.0587-1.15948-1.7822-.21227-.5462-.46478-1.3669-.53369-2.8781-.07457-1.6344-.09038-2.1247-.09038-6.2633 0-4.1387.01581-4.6289.09038-6.26336.06891-1.51123.32142-2.33195.53369-2.87813.28118-.7235.61706-1.23983 1.15948-1.7822.54237-.54242 1.0587-.8783 1.7822-1.15948.54618-.21227 1.3669-.46478 2.87813-.53369 1.63446-.07457 2.12466-.09038 6.26336-.09038zm-7.95944 12.70734c0-4.396 3.56354-7.95953 7.95944-7.95953s7.9595 3.56353 7.9595 7.95953c0 4.3958-3.5636 7.9594-7.9595 7.9594s-7.95944-3.5636-7.95944-7.9594zm7.95944 5.1666c-2.8535 0-5.1667-2.3132-5.1667-5.1667s2.3132-5.1667 5.1667-5.1667 5.1667 2.3132 5.1667 5.1667-2.3132 5.1667-5.1667 5.1667zm8.274-11.58068c1.0273 0 1.86-.83271 1.86-1.85997s-.8327-1.86004-1.86-1.86004c-1.0272 0-1.86.83278-1.86 1.86004s.8328 1.85997 1.86 1.85997z" fill="#2681e2" fill-rule="evenodd"/></svg>