<svg fill="none" height="16" viewBox="0 0 16 16" width="16" xmlns="http://www.w3.org/2000/svg"><path d="m14.1782 10.7188-2.2225-.2538c-.5337-.0612-1.0587.1225-1.435.4987l-1.60998 1.61c-2.47625-1.26-4.50626-3.2812-5.76626-5.7662l1.61876-1.61875c.37625-.37625.55999-.90125.49874-1.435l-.25375-2.205c-.105-.88375-.84874-1.54875-1.74124-1.54875h-1.51376c-.988745 0-1.8112457.8225-1.74999571 1.81125.46374971 7.4725 6.44000571 13.43995 13.90378571 13.90375.9887.0612 1.8112-.7613 1.8112-1.75v-1.5138c.0088-.8837-.6562-1.6275-1.54-1.7324z" fill="#fff"/></svg>