<svg fill="none" height="18" viewBox="0 0 18 18" width="18" xmlns="http://www.w3.org/2000/svg"><path d="m12.5006 11.0006h-.79l-.28-.27c1.2-1.39997 1.82-3.30997 1.48-5.33997-.47-2.78-2.79-5.000004-5.58997-5.3400044-4.23-.5199996-7.790004 3.0400044-7.2700044 7.2700044.3400004 2.79997 2.5600044 5.11997 5.3400044 5.58997 2.03.34 3.94-.28 5.33997-1.48l.27.28v.79l4.25 4.25c.41.41 1.08.41 1.49 0s.41-1.08 0-1.49zm-5.99997 0c-2.49 0-4.5-2.00997-4.5-4.49997s2.01-4.5 4.5-4.5 4.49997 2.01 4.49997 4.5-2.00997 4.49997-4.49997 4.49997z" fill="#2681e2"/></svg>