<svg fill="none" height="35" viewBox="0 0 43 35" width="43" xmlns="http://www.w3.org/2000/svg"><path d="m23.9956 7.5-1.0694-1.0325-2.5556-2.4675h-9.3706v21h29v-17.5zm7.8482 7.875 6.3437 7.875h-25.375l8.1563-10.5 6.3437 7.8925z" fill="#a4d0ea" opacity=".3"/><path d="m3.58333 7h-3.58333v8.75h.0179167l-.0179167 15.75c0 1.925 1.6125 3.5 3.58333 3.5h32.24997v-3.5h-32.24997zm8.95837 15.75h25.0833l-6.2708-7.875-4.4792 5.2675-6.2708-7.8925zm26.875-19.25h-14.3334l-3.5833-3.5h-10.75c-1.97083 0-3.56542 1.575-3.56542 3.5l-.01791 21c0 1.925 1.6125 3.5 3.58333 3.5h28.6667c1.9708 0 3.5833-1.575 3.5833-3.5v-17.5c0-1.925-1.6125-3.5-3.5833-3.5zm0 21h-28.6667v-21h9.2629l2.5263 2.4675 1.057 1.0325h15.8205z" fill="#fff"/></svg>