<svg fill="none" height="15" viewBox="0 0 18 15" width="18" xmlns="http://www.w3.org/2000/svg"><path d="m15.866.00061035h-14.10257c-.96955 0-1.75400555.82499965-1.75400555 1.83332965l-.0088141 10.99996c0 1.0084.79326965 1.8334 1.76281965 1.8334h14.10257c.9695 0 1.7628-.825 1.7628-1.8334v-10.99996c0-1.00833-.7933-1.83332965-1.7628-1.83332965zm-.3526 3.89582965-6.23154 4.05167c-.28205.18333-.65224.18333-.93429 0l-6.23157-4.05167c-.22036-.14666-.35257-.39416-.35257-.66 0-.61416.64343-.98083 1.14583-.66l5.90545 3.84084 5.90549-3.84084c.5024-.32083 1.1458.04584 1.1458.66 0 .26584-.1322.51334-.3526.66z" fill="#fff"/></svg>