<svg fill="none" height="29" viewBox="0 0 29 29" width="29" xmlns="http://www.w3.org/2000/svg"><path clip-rule="evenodd" d="m15.4898 29h-13.88922c-.884236 0-1.60058-.7168-1.60058-1.6007v-25.79873c0-.884119.716457-1.60057 1.60058-1.60057h25.79892c.8839 0 1.6005.716451 1.6005 1.60057v25.79873c0 .884-.7167 1.6007-1.6005 1.6007h-7.3899v-11.2304h3.7695l.5644-4.3767h-4.3339v-2.7942c0-1.26717.3519-2.13069 2.1689-2.13069l2.3176-.00102v-3.91454c-.4008-.05334-1.7765-.1725-3.3771-.1725-3.3415 0-5.6292 2.03964-5.6292 5.78525v3.2277h-3.7792v4.3767h3.7792z" fill="#2681e2" fill-rule="evenodd"/></svg>