<svg fill="none" height="32" viewBox="0 0 32 32" width="32" xmlns="http://www.w3.org/2000/svg"><path d="m15.8334 28.5c6.9825 0 12.6667-5.6842 12.6667-12.6667 0-6.98251-5.6842-12.66667-12.6667-12.66667-6.98249 0-12.66665 5.68416-12.66665 12.66667 0 6.9825 5.68416 12.6667 12.66665 12.6667zm-3.1667-19.79171 9.5 7.12501-9.5 7.125z" fill="#a4d0ea" opacity=".3"/><path d="m15.8333 31.6667c8.74 0 15.8334-7.0934 15.8334-15.8334 0-8.73997-7.0934-15.8333-15.8334-15.8333-8.73997 0-15.8333 7.09333-15.8333 15.8333 0 8.74 7.09333 15.8334 15.8333 15.8334zm0-28.50003c6.9825 0 12.6667 5.68416 12.6667 12.66663 0 6.9825-5.6842 12.6667-12.6667 12.6667-6.98247 0-12.66663-5.6842-12.66663-12.6667 0-6.98247 5.68416-12.66663 12.66663-12.66663zm-3.1666 5.54166v14.24997l9.5-7.125z" fill="#fff"/></svg>